<svg id="Layer_1" data-name="Layer 1" xmlns="http://www.w3.org/2000/svg" viewBox="0 0 298.87 470.97"><defs><style>.cls-1{fill:#4b4c4c;}.cls-2{fill:#fff;}</style></defs><polygon class="cls-1" points="184.34 0 0 64.9 0 470.97 184.34 470.97 184.34 0"/><polygon class="cls-1" points="298.87 240.14 183.59 175.24 183.59 470.97 298.87 470.97 298.87 240.14"/><rect class="cls-2" x="193.37" y="269.53" width="27.2" height="27.2"/><rect class="cls-2" x="193.37" y="316.93" width="27.2" height="27.2"/><rect class="cls-2" x="193.37" y="364.33" width="27.2" height="27.2"/><rect class="cls-2" x="193.37" y="411.74" width="27.2" height="27.2"/><rect class="cls-2" x="243.72" y="269.53" width="27.21" height="27.2"/><rect class="cls-2" x="243.72" y="316.93" width="27.21" height="27.2"/><rect class="cls-2" x="243.72" y="364.33" width="27.21" height="27.2"/><rect class="cls-2" x="243.72" y="411.74" width="27.21" height="27.2"/><rect class="cls-2" x="27.16" y="98.46" width="127.64" height="19.12"/><rect class="cls-2" x="27.16" y="143.66" width="127.64" height="19.12"/><rect class="cls-2" x="27.16" y="188.86" width="127.64" height="19.12"/><rect class="cls-2" x="27.16" y="234.06" width="127.64" height="19.12"/><rect class="cls-2" x="27.16" y="279.26" width="127.64" height="19.12"/><rect class="cls-2" x="27.16" y="324.46" width="127.64" height="19.12"/><rect class="cls-2" x="27.16" y="369.66" width="127.64" height="19.12"/><rect class="cls-2" x="27.16" y="414.86" width="127.64" height="19.12"/></svg>